<?xml version="1.0" encoding="UTF-8"?>
<!DOCTYPE svg PUBLIC "-//W3C//DTD SVG 1.1//EN" "http://www.w3.org/Graphics/SVG/1.1/DTD/svg11.dtd">
<!-- Creator: CorelDRAW -->
<svg xmlns="http://www.w3.org/2000/svg" xml:space="preserve" width="660px" height="196px" style="shape-rendering:geometricPrecision; text-rendering:geometricPrecision; image-rendering:optimizeQuality; fill-rule:evenodd; clip-rule:evenodd"
viewBox="0 0 660 195.6"
 xmlns:xlink="http://www.w3.org/1999/xlink">
 <defs>
  <style type="text/css">
   <![CDATA[
    .str0 {stroke:white;stroke-width:3.70394}
    .fil0 {fill:black}
    .fil1 {fill:#A6A6A6}
    .fil2 {fill:white}
    .fil7 {fill:black;fill-opacity:0.200000}
    .fil8 {fill:white;fill-opacity:0.200000}
    .fil4 {fill:url(#id0)}
    .fil6 {fill:url(#id1)}
    .fil5 {fill:url(#id2)}
    .fil3 {fill:url(#id3)}
   ]]>
  </style>
  <linearGradient id="id0" gradientUnits="userSpaceOnUse" x1="163.297" y1="98.0445" x2="111.966" y2="98.0445">
   <stop offset="0" style="stop-color:#FFE000"/>
   <stop offset="0.411765" style="stop-color:#FFBD00"/>
   <stop offset="0.780392" style="stop-color:orange"/>
   <stop offset="1" style="stop-color:#FF9C00"/>
  </linearGradient>
  <linearGradient id="id1" gradientUnits="userSpaceOnUse" x1="57.5575" y1="100.144" x2="125.799" y2="31.9028">
   <stop offset="0" style="stop-color:#32A071"/>
   <stop offset="0.0705882" style="stop-color:#2DA771"/>
   <stop offset="0.470588" style="stop-color:#15CF74"/>
   <stop offset="0.8" style="stop-color:#06E775"/>
   <stop offset="1" style="stop-color:#00F076"/>
  </linearGradient>
  <linearGradient id="id2" gradientUnits="userSpaceOnUse" x1="125.799" y1="163.697" x2="57.5575" y2="95.4555">
   <stop offset="0" style="stop-color:#FF3A44"/>
   <stop offset="1" style="stop-color:#C31162"/>
  </linearGradient>
  <linearGradient id="id3" gradientUnits="userSpaceOnUse" x1="117.927" y1="137.376" x2="43.4315" y2="58.2236">
   <stop offset="0" style="stop-color:#00A0FF"/>
   <stop offset="0.0117647" style="stop-color:#00A1FF"/>
   <stop offset="0.258824" style="stop-color:#00BEFF"/>
   <stop offset="0.509804" style="stop-color:#00D2FF"/>
   <stop offset="0.760784" style="stop-color:#00DFFF"/>
   <stop offset="1" style="stop-color:#00E3FF"/>
  </linearGradient>
 </defs>
 <g id="Layer_x0020_1">
  <metadata id="CorelCorpID_0Corel-Layer"/>
  <g id="_342057416">
   <path id="_342545136" class="fil0" d="M635.541 195.573l-611.081 0c-13.6878,0 -24.4429,-10.7551 -24.4429,-24.4429l0 -146.66c0,-13.6878 10.7551,-24.4429 24.4429,-24.4429l611.081 0c13.6878,0 24.4429,10.7551 24.4429,24.4429l0 146.66c0,13.6878 -10.7551,24.4429 -24.4429,24.4429z"/>
   <path id="_342545640" class="fil1" d="M635.541 3.9378c11.2441,0 20.5323,9.28819 20.5323,20.5323l0 146.66c0,11.2441 -9.28819,20.5323 -20.5323,20.5323l-611.081 0c-11.2441,0 -20.5323,-9.28819 -20.5323,-20.5323l0 -146.66c0,-11.2441 9.28819,-20.5323 20.5323,-20.5323l611.081 0m0 -3.91063l-611.081 0c-13.6878,0 -24.4429,11.2441 -24.4429,24.4429l0 146.66c0,13.6878 10.7551,24.4429 24.4429,24.4429l611.081 0c13.6878,0 24.4429,-10.7551 24.4429,-24.4429l0 -146.66c0,-13.1988 -10.7551,-24.4429 -24.4429,-24.4429z"/>
   <path id="_342545568" class="fil2 str0" d="M231.738 49.8909c0,3.91181 -0.977953,7.33346 -3.42165,9.77717 -2.93386,2.93386 -6.35551,4.40079 -10.7551,4.40079 -4.39961,0 -7.82244,-1.46693 -10.7551,-4.40079 -2.93268,-2.93268 -4.39961,-6.35433 -4.39961,-10.7551 0,-4.39961 1.46693,-7.82126 4.39961,-10.7539 2.93268,-2.93386 6.35551,-4.40079 10.7551,-4.40079 1.95591,0 3.91063,0.488976 5.86654,1.46693 1.95472,0.977953 3.42165,1.95591 4.39961,3.42165l-2.44488 2.44488c-1.95591,-2.44488 -4.39961,-3.42165 -7.82126,-3.42165 -2.93268,0 -5.86654,0.977953 -7.82244,3.42165 -2.4437,1.95591 -3.42165,4.88858 -3.42165,8.31024 0,3.42283 0.977953,6.35551 3.42165,8.31142 2.44488,1.95472 4.88976,3.42165 7.82244,3.42165 3.42165,0 5.86654,-0.977953 8.31024,-3.42165 1.46693,-1.46693 2.44488,-3.42283 2.44488,-5.86654l-10.7551 0 0 -3.91063 14.1768 0 0 1.95472zm22.4882 -12.2209l-13.2 0 0 9.28819 12.222 0 0 3.42165 -12.222 0 0 9.28819 13.2 0 0 3.91181 -17.1106 0 0 -29.3327 17.1106 0 0 3.42283zm16.1327 25.9098l-3.91181 0 0 -25.9098 -8.31024 0 0 -3.42283 20.5323 0 0 3.42283 -8.31024 0 0 25.9098zm22.487 0l0 -29.3327 3.91181 0 0 29.3327 -3.91181 0zm20.5323 0l-3.91063 0 0 -25.9098 -8.31024 0 0 -3.42283 20.0433 0 0 3.42283 -8.31142 0 0 25.9098 0.488976 0zm46.4421 -3.91181c-2.93268,2.93386 -6.35551,4.40079 -10.7551,4.40079 -4.39961,0 -7.82126,-1.46693 -10.7551,-4.40079 -2.93268,-2.93268 -4.39961,-6.35433 -4.39961,-10.7551 0,-4.39961 1.46693,-7.82126 4.39961,-10.7539 2.93386,-2.93386 6.35551,-4.40079 10.7551,-4.40079 4.39961,0 7.82244,1.46693 10.7551,4.40079 2.93386,2.93268 4.39961,6.35433 4.39961,10.7539 0,4.40079 -1.46575,7.82244 -4.39961,10.7551zm-18.5764 -2.4437c1.95591,1.95591 4.88858,3.42165 7.82126,3.42165 2.93386,0 5.86654,-0.977953 7.82244,-3.42165 1.95472,-1.95591 3.42165,-4.88858 3.42165,-8.31142 0,-3.42165 -0.977953,-6.35433 -3.42165,-8.31024 -1.95591,-1.95591 -4.88858,-3.42165 -7.82244,-3.42165 -2.93268,0 -5.86654,0.977953 -7.82126,3.42165 -1.95591,1.95591 -3.42165,4.88858 -3.42165,8.31024 0,3.42283 0.977953,6.35551 3.42165,8.31142zm28.3535 6.35551l0 -29.3327 4.39961 0 14.178 22.9772 0 -22.9772 3.91063 0 0 29.3327 -3.91063 0 -15.1547 -23.9551 0 23.9551 -3.42283 0z"/>
   <path id="_342546240" class="fil2" d="M332.933 106.599c-11.7331,0 -21.0213,8.79921 -21.0213,21.0213 0,11.7331 9.28819,21.0213 21.0213,21.0213 11.7331,0 21.0213,-8.79921 21.0213,-21.0213 0,-12.7098 -9.28819,-21.0213 -21.0213,-21.0213zm0 33.2433c-6.35551,0 -11.7331,-5.37756 -11.7331,-12.711 0,-7.33228 5.37756,-12.7098 11.7331,-12.7098 6.35551,0 11.7331,4.88858 11.7331,12.7098 0,7.33346 -5.37756,12.711 -11.7331,12.711zm-45.4642 -33.2433c-11.7319,0 -21.0213,8.79921 -21.0213,21.0213 0,11.7331 9.28937,21.0213 21.0213,21.0213 11.7331,0 21.0213,-8.79921 21.0213,-21.0213 0,-12.7098 -9.28819,-21.0213 -21.0213,-21.0213zm0 33.2433c-6.35551,0 -11.7319,-5.37756 -11.7319,-12.711 0,-7.33228 5.37638,-12.7098 11.7319,-12.7098 6.35551,0 11.7331,4.88858 11.7331,12.7098 0,7.33346 -5.37756,12.711 -11.7331,12.711zm-54.2634 -26.8878l0 8.79921 21.0213 0c-0.488976,4.88858 -2.44488,8.80039 -4.88858,11.2441 -2.93386,2.93386 -7.82244,6.35551 -16.1327,6.35551 -13.2,0 -22.9772,-10.2661 -22.9772,-23.465 0,-13.2 10.2661,-23.4661 22.9772,-23.4661 6.84331,0 12.2209,2.93386 16.1327,6.35551l6.35433 -6.35551c-5.37756,-4.88858 -12.2209,-8.79921 -21.998,-8.79921 -17.5996,0 -32.7543,14.6657 -32.7543,32.2654 0,17.5984 15.1547,32.2642 32.7543,32.2642 9.77717,0 16.6205,-2.93268 22.487,-9.28819 5.86654,-5.86654 7.82126,-14.1768 7.82126,-20.5323 0,-1.95591 0,-3.91063 -0.488976,-5.37756l-30.3083 0zm221.944 6.84449c-1.95591,-4.88858 -6.84449,-13.2 -17.5996,-13.2 -10.7539,0 -19.5543,8.31142 -19.5543,21.0213 0,11.7331 8.79921,21.0213 20.5323,21.0213 9.28819,0 15.1547,-5.86654 17.1106,-9.28819l-6.84449 -4.88858c-2.4437,3.42165 -5.37756,5.86654 -10.2661,5.86654 -4.88858,0 -7.82126,-1.95591 -10.2661,-6.35551l27.8657 -11.7331 -0.977953 -2.4437zm-28.3547 6.84331c0,-7.82126 6.35551,-12.2209 10.7551,-12.2209 3.42165,0 6.84449,1.95472 7.82126,4.39961l-18.5764 7.82126 0 0zm-22.976 20.0445l9.28819 0 0 -61.1091 -9.28819 0 0 61.1091zm-14.6657 -35.6882c-2.44488,-2.4437 -6.35551,-4.88858 -11.2441,-4.88858 -10.2661,0 -20.0433,9.28819 -20.0433,21.0213 0,11.7331 9.28819,20.5323 20.0433,20.5323 4.88858,0 8.79921,-2.4437 10.7551,-4.88858l0.488976 0 0 2.93386c0,7.82126 -4.40079,12.2209 -11.2441,12.2209 -5.37756,0 -9.28937,-3.91063 -10.2661,-7.33228l-7.82244 3.42165c2.44488,5.37756 8.31142,12.222 18.5776,12.222 10.7551,0 19.5543,-6.35551 19.5543,-21.5102l0 -37.1539 -8.79921 0 0 3.42165zm-10.7551 28.8437c-6.35551,0 -11.7331,-5.37756 -11.7331,-12.711 0,-7.33228 5.37756,-12.7098 11.7331,-12.7098 6.35433,0 11.2429,5.37756 11.2429,12.7098 0,7.33346 -4.88858,12.711 -11.2429,12.711zm119.282 -54.2646l-21.998 0 0 61.1091 9.28819 0 0 -22.9772 12.7098 0c10.2673,0 20.0445,-7.33346 20.0445,-19.0654 0,-11.7331 -9.77717,-19.0654 -20.0445,-19.0654l0 -0.0011811zm0.488976 29.3327l-13.1988 0 0 -21.0213 13.1988 0c6.84449,0 10.7551,5.86654 10.7551,10.2661 -0.488976,5.37756 -4.39961,10.7551 -10.7551,10.7551l0 0zm56.2205 -8.80039c-6.84449,0 -13.689,2.93386 -16.1327,9.28819l8.31024 3.42283c1.95591,-3.42283 4.88858,-4.39961 8.31024,-4.39961 4.88858,0 9.28819,2.93268 9.77717,7.82126l0 0.488976c-1.46575,-0.977953 -5.37756,-2.44488 -9.28819,-2.44488 -8.79921,0 -17.5984,4.88858 -17.5984,13.689 0,8.31024 7.33228,13.6878 15.1547,13.6878 6.35551,0 9.28819,-2.93268 11.7331,-5.86654l0.487795 0 0 4.88976 8.80039 0 0 -23.4661c-0.977953,-10.7551 -9.28819,-17.1106 -19.5543,-17.1106zm-0.977953 33.7323c-2.93386,0 -7.33346,-1.46693 -7.33346,-5.37756 0,-4.88858 5.37756,-6.35551 9.77717,-6.35551 3.91063,0 5.86654,0.977953 8.31024,1.95591 -0.976772,5.86654 -5.86535,9.77717 -10.7539,9.77717l0 0zm51.3307 -32.2654l-10.2661 26.3988 -0.488976 0 -10.7551 -26.3988 -9.77717 0 16.1327 37.1539 -9.28819 20.5323 9.28819 0 24.9319 -57.6862 -9.77717 0zm-82.1291 39.1098l9.28819 0 0 -61.1091 -9.28819 0 0 61.1091z"/>
   <g>
    <path id="_342548784" class="fil3" d="M50.8583 36.6921c-1.46693,1.46693 -1.95591,3.91063 -1.95591,6.84449l0 108.039c0,2.93268 0.977953,5.37756 2.44488,6.84331l0.488976 0.488976 60.6189 -60.6189 0 -0.977953 -61.5969 -60.6189z"/>
    <path id="_342550704" class="fil4" d="M132.009 118.821l-20.0433 -20.0433 0 -1.46693 20.0433 -20.0433 0.488976 0.488976 23.9551 13.6878c6.84331,3.91063 6.84331,10.2661 0,14.1768l-24.4441 13.2 0 0z"/>
    <path id="_342551064" class="fil5" d="M132.498 118.332l-20.5323 -20.5323 -61.1079 61.1079c2.44488,2.44488 5.86654,2.44488 10.2661,0.488976l71.374 -41.0646z"/>
    <path id="_342552096" class="fil6" d="M132.498 77.2677l-71.374 -40.5756c-4.39961,-2.44488 -7.82126,-1.95591 -10.2661,0.488976l61.1079 60.6189 20.5323 -20.5323z"/>
    <path id="_342552048" class="fil7" d="M132.009 117.843l-70.885 40.0866c-3.91063,2.44488 -7.33346,1.95591 -9.77717,0l-0.488976 0.488976 0.488976 0.488976c2.44488,1.95591 5.86654,2.44488 9.77717,0l70.885 -41.0646z"/>
    <path id="_342552648" class="fil7" d="M50.8583 157.93c-1.46693,-1.46575 -1.95591,-3.91063 -1.95591,-6.84331l0 0.488976c0,2.93268 0.977953,5.37756 2.44488,6.84331l0 -0.488976 -0.488976 0zm105.595 -53.7744l-24.4441 13.6878 0.488976 0.488976 23.9551 -13.6878c3.42165,-1.95591 4.88858,-4.39961 4.88858,-6.84449 0,2.44488 -1.95591,4.39961 -4.88858,6.35551z"/>
    <path id="_342552744" class="fil8" d="M61.1244 37.1811l95.3291 54.2634c2.93268,1.95591 4.88858,3.91063 4.88858,6.35551 0,-2.44488 -1.46693,-4.88858 -4.88858,-6.84449l-95.3291 -54.2634c-6.84449,-3.91063 -12.222,-0.977953 -12.222,6.84449l0 0.487795c0,-7.33228 5.37756,-10.7551 12.222,-6.84331l0 0z"/>
   </g>
  </g>
 </g>
</svg>
