<?xml version="1.0" encoding="UTF-8"?>
<!DOCTYPE svg PUBLIC "-//W3C//DTD SVG 1.1//EN" "http://www.w3.org/Graphics/SVG/1.1/DTD/svg11.dtd">
<!-- Creator: CorelDRAW -->
<svg xmlns="http://www.w3.org/2000/svg" xml:space="preserve" width="108px" height="32px" style="shape-rendering:geometricPrecision; text-rendering:geometricPrecision; image-rendering:optimizeQuality; fill-rule:evenodd; clip-rule:evenodd"
viewBox="0 0 108 31.9984"
 xmlns:xlink="http://www.w3.org/1999/xlink">
 <defs>
  <style type="text/css">
   <![CDATA[
    .str0 {stroke:white;stroke-width:0.100394}
    .fil0 {fill:black}
    .fil1 {fill:#A6A6A6}
    .fil2 {fill:white}
    .fil7 {fill:black;fill-opacity:0.200000}
    .fil8 {fill:white;fill-opacity:0.200000}
    .fil4 {fill:url(#id0)}
    .fil6 {fill:url(#id1)}
    .fil5 {fill:url(#id2)}
    .fil3 {fill:url(#id3)}
   ]]>
  </style>
  <linearGradient id="id0" gradientUnits="userSpaceOnUse" x1="26.7213" y1="16.0394" x2="18.3213" y2="16.0394">
   <stop offset="0" style="stop-color:#FFE000"/>
   <stop offset="0.411765" style="stop-color:#FFBD00"/>
   <stop offset="0.780392" style="stop-color:orange"/>
   <stop offset="1" style="stop-color:#FF9C00"/>
  </linearGradient>
  <linearGradient id="id1" gradientUnits="userSpaceOnUse" x1="9.41811" y1="16.3831" x2="20.5843" y2="5.21575">
   <stop offset="0" style="stop-color:#32A071"/>
   <stop offset="0.0705882" style="stop-color:#2DA771"/>
   <stop offset="0.470588" style="stop-color:#15CF74"/>
   <stop offset="0.8" style="stop-color:#06E775"/>
   <stop offset="1" style="stop-color:#00F076"/>
  </linearGradient>
  <linearGradient id="id2" gradientUnits="userSpaceOnUse" x1="20.5843" y1="26.7827" x2="9.41811" y2="15.6154">
   <stop offset="0" style="stop-color:#FF3A44"/>
   <stop offset="1" style="stop-color:#C31162"/>
  </linearGradient>
  <linearGradient id="id3" gradientUnits="userSpaceOnUse" x1="19.2969" y1="22.4752" x2="7.10669" y2="9.52323">
   <stop offset="0" style="stop-color:#00A0FF"/>
   <stop offset="0.0117647" style="stop-color:#00A1FF"/>
   <stop offset="0.258824" style="stop-color:#00BEFF"/>
   <stop offset="0.509804" style="stop-color:#00D2FF"/>
   <stop offset="0.760784" style="stop-color:#00DFFF"/>
   <stop offset="1" style="stop-color:#00E3FF"/>
  </linearGradient>
 </defs>
 <g id="Layer_x0020_1">
  <metadata id="CorelCorpID_0Corel-Layer"/>
  <g id="_251974928">
   <path id="_252424120" class="fil0" d="M103.998 31.9984l-99.9969 0c-2.23937,0 -3.99921,-1.75984 -3.99921,-3.99921l0 -24c0,-2.23937 1.75984,-3.99921 3.99921,-3.99921l99.9969 0c2.24055,0 4.00039,1.75984 4.00039,3.99921l0 24c0,2.23937 -1.75984,3.99921 -4.00039,3.99921z"/>
   <path id="_252424672" class="fil1" d="M103.998 0.640157c1.84016,0 3.36024,1.52008 3.36024,3.35906l0 24c0,1.83898 -1.52008,3.35906 -3.36024,3.35906l-99.9969 0c-1.84016,0 -3.36024,-1.52008 -3.36024,-3.35906l0 -24c0,-1.83898 1.52008,-3.35906 3.36024,-3.35906l99.9969 0m0 -0.640157l-99.9969 0c-2.23937,0 -3.99921,1.84016 -3.99921,3.99921l0 24c0,2.23937 1.75984,3.99921 3.99921,3.99921l99.9969 0c2.24055,0 4.00039,-1.75984 4.00039,-3.99921l0 -24c0,-2.15906 -1.75984,-3.99921 -4.00039,-3.99921z"/>
   <path id="_252424480" class="fil2 str0" d="M37.9205 8.15906c0,0.640157 -0.159449,1.2 -0.559843,1.60039 -0.479528,0.479528 -1.03937,0.720472 -1.75984,0.720472 -0.720472,0 -1.28031,-0.240945 -1.75984,-0.720472 -0.480709,-0.479528 -0.720472,-1.03937 -0.720472,-1.75984 0,-0.720472 0.239764,-1.28031 0.720472,-1.75984 0.479528,-0.479528 1.03937,-0.720472 1.75984,-0.720472 0.320079,0 0.640157,0.080315 0.960236,0.240945 0.320079,0.159449 0.559843,0.318898 0.719291,0.559843l-0.399213 0.399213c-0.320079,-0.399213 -0.720472,-0.559843 -1.28031,-0.559843 -0.479528,0 -0.960236,0.16063 -1.28031,0.559843 -0.399213,0.320079 -0.559843,0.800787 -0.559843,1.36063 0,0.559843 0.16063,1.03937 0.559843,1.35945 0.400394,0.320079 0.800787,0.559843 1.28031,0.559843 0.559843,0 0.960236,-0.159449 1.35945,-0.559843 0.240945,-0.239764 0.400394,-0.559843 0.400394,-0.960236l-1.75984 0 0 -0.638976 2.31969 0 0 0.318898zm3.68031 -1.99961l-2.16024 0 0 1.52008 1.99961 0 0 0.559843 -1.99961 0 0 1.52008 2.16024 0 0 0.640157 -2.80039 0 0 -4.8 2.80039 0 0 0.559843zm2.63976 4.24016l-0.640157 0 0 -4.24016 -1.35945 0 0 -0.559843 3.35906 0 0 0.559843 -1.35945 0 0 4.24016zm3.68031 0l0 -4.8 0.638976 0 0 4.8 -0.638976 0zm3.35906 0l-0.640157 0 0 -4.24016 -1.35945 0 0 -0.559843 3.27992 0 0 0.559843 -1.35945 0 0 4.24016 0.0791339 0zm7.60039 -0.640157c-0.480709,0.479528 -1.04055,0.720472 -1.75984,0.720472 -0.720472,0 -1.28031,-0.240945 -1.75984,-0.720472 -0.480709,-0.479528 -0.720472,-1.03937 -0.720472,-1.75984 0,-0.720472 0.239764,-1.28031 0.720472,-1.75984 0.479528,-0.479528 1.03937,-0.720472 1.75984,-0.720472 0.719291,0 1.27913,0.240945 1.75984,0.720472 0.479528,0.479528 0.719291,1.03937 0.719291,1.75984 0,0.720472 -0.239764,1.28031 -0.719291,1.75984zm-3.04016 -0.400394c0.320079,0.320079 0.799606,0.559843 1.28031,0.559843 0.479528,0 0.959055,-0.159449 1.27913,-0.559843 0.320079,-0.320079 0.559843,-0.799606 0.559843,-1.35945 0,-0.559843 -0.159449,-1.04055 -0.559843,-1.35945 -0.320079,-0.320079 -0.799606,-0.561024 -1.27913,-0.561024 -0.480709,0 -0.960236,0.16063 -1.28031,0.561024 -0.320079,0.320079 -0.559843,0.799606 -0.559843,1.35945 0,0.559843 0.159449,1.03937 0.559843,1.35945zm4.63937 1.04055l0 -4.8 0.720472 0 2.31969 3.75945 0 -3.75945 0.640157 0 0 4.8 -0.640157 0 -2.48031 -3.92008 0 3.92008 -0.559843 0z"/>
   <path id="_252424528" class="fil2" d="M54.4807 17.439c-1.92047,0 -3.44055,1.43976 -3.44055,3.44055 0,1.91929 1.52008,3.43937 3.44055,3.43937 1.91929,0 3.43937,-1.43976 3.43937,-3.43937 0,-2.07992 -1.52008,-3.44055 -3.43937,-3.44055zm0 5.44016c-1.04055,0 -1.92047,-0.879921 -1.92047,-2.07992 0,-1.2 0.879921,-2.07992 1.92047,-2.07992 1.03937,0 1.91929,0.799606 1.91929,2.07992 0,1.2 -0.879921,2.07992 -1.91929,2.07992zm-7.43976 -5.44016c-1.92047,0 -3.44055,1.43976 -3.44055,3.44055 0,1.91929 1.52008,3.43937 3.44055,3.43937 1.91929,0 3.43937,-1.43976 3.43937,-3.43937 0,-2.07992 -1.52008,-3.44055 -3.43937,-3.44055zm0 5.44016c-1.04055,0 -1.92047,-0.879921 -1.92047,-2.07992 0,-1.2 0.879921,-2.07992 1.92047,-2.07992 1.03937,0 1.91929,0.799606 1.91929,2.07992 0,1.2 -0.879921,2.07992 -1.91929,2.07992zm-8.88071 -4.39961l0 1.43976 3.44055 0c-0.080315,0.799606 -0.400394,1.43976 -0.800787,1.84016 -0.479528,0.479528 -1.27913,1.03937 -2.63976,1.03937 -2.15906,0 -3.75945,-1.67953 -3.75945,-3.83976 0,-2.16024 1.67953,-3.83976 3.75945,-3.83976 1.12087,0 2.00079,0.479528 2.63976,1.04055l1.04055 -1.04055c-0.879921,-0.799606 -1.99961,-1.43976 -3.6,-1.43976 -2.87953,0 -5.35984,2.4 -5.35984,5.27953 0,2.87953 2.48031,5.27953 5.35984,5.27953 1.60039,0 2.72008,-0.479528 3.68031,-1.52008 0.959055,-0.959055 1.27913,-2.31969 1.27913,-3.35906 0,-0.320079 0,-0.640157 -0.0791339,-0.879921l-4.96063 0zm36.3189 1.11969c-0.320079,-0.799606 -1.11969,-2.16024 -2.87953,-2.16024 -1.75984,0 -3.19961,1.36063 -3.19961,3.44055 0,1.91929 1.43976,3.43937 3.36024,3.43937 1.5189,0 2.47913,-0.960236 2.79921,-1.52008l-1.11969 -0.799606c-0.400394,0.559843 -0.879921,0.960236 -1.67953,0.960236 -0.800787,0 -1.28031,-0.320079 -1.68071,-1.04055l4.56024 -1.91929 -0.16063 -0.400394zm-4.63937 1.11969c0,-1.28031 1.03937,-1.99961 1.75984,-1.99961 0.559843,0 1.11969,0.320079 1.28031,0.719291l-3.04016 1.28031 0 0zm-3.75945 3.27992l1.5189 0 0 -9.99921 -1.5189 0 0 9.99921zm-2.4 -5.83937c-0.400394,-0.400394 -1.04055,-0.800787 -1.84016,-0.800787 -1.68071,0 -3.27992,1.52008 -3.27992,3.44055 0,1.91929 1.52008,3.35906 3.27992,3.35906 0.799606,0 1.43976,-0.399213 1.75984,-0.799606l0.080315 0 0 0.480709c0,1.27913 -0.720472,1.99961 -1.84016,1.99961 -0.879921,0 -1.52008,-0.640157 -1.68071,-1.2l-1.27913 0.559843c0.399213,0.879921 1.35945,1.99961 3.04016,1.99961 1.75984,0 3.19961,-1.03937 3.19961,-3.51969l0 -6.07913 -1.43976 0 0 0.559843zm-1.75984 4.71969c-1.04055,0 -1.92047,-0.879921 -1.92047,-2.07992 0,-1.2 0.879921,-2.07992 1.92047,-2.07992 1.03937,0 1.83898,0.879921 1.83898,2.07992 0,1.2 -0.799606,2.07992 -1.83898,2.07992zm19.5189 -8.87953l-3.6 0 0 9.99921 1.52008 0 0 -3.75945 2.07992 0c1.67953,0 3.27992,-1.2 3.27992,-3.12047 0,-1.91929 -1.60039,-3.11929 -3.27992,-3.11929l0 0zm0.080315 4.8l-2.16024 0 0 -3.44055 2.16024 0c1.11969,0 1.75984,0.960236 1.75984,1.68071 -0.080315,0.879921 -0.720472,1.75984 -1.75984,1.75984l0 0zm9.19961 -1.44094c-1.11969,0 -2.24055,0.480709 -2.63976,1.52008l1.35945 0.559843c0.320079,-0.559843 0.799606,-0.719291 1.36063,-0.719291 0.799606,0 1.5189,0.479528 1.59921,1.27913l0 0.080315c-0.239764,-0.159449 -0.879921,-0.399213 -1.52008,-0.399213 -1.43976,0 -2.87953,0.799606 -2.87953,2.23937 0,1.35945 1.2,2.23937 2.48031,2.23937 1.03937,0 1.52008,-0.479528 1.91929,-0.959055l0.080315 0 0 0.799606 1.43976 0 0 -3.83976c-0.159449,-1.75984 -1.52008,-2.80039 -3.19961,-2.80039zm-0.16063 5.52047c-0.479528,0 -1.2,-0.239764 -1.2,-0.879921 0,-0.800787 0.879921,-1.04055 1.60039,-1.04055 0.640157,0 0.960236,0.16063 1.35945,0.320079 -0.159449,0.960236 -0.959055,1.60039 -1.75984,1.60039l0 0zm8.4 -5.27953l-1.67953 4.31929 -0.080315 0 -1.75984 -4.31929 -1.60039 0 2.63976 6.07913 -1.5189 3.36024 1.5189 0 4.08071 -9.43937 -1.60039 0zm-13.4398 6.39921l1.52008 0 0 -9.99921 -1.52008 0 0 9.99921z"/>
   <g>
    <path id="_252427384" class="fil3" d="M8.32205 6c-0.240945,0.239764 -0.320079,0.640157 -0.320079,1.11969l0 17.6787c0,0.480709 0.159449,0.879921 0.399213,1.12087l0.080315 0.0791339 9.92008 -9.9189 0 -0.16063 -10.0795 -9.9189z"/>
    <path id="_252428944" class="fil4" d="M21.6012 19.4386l-3.27992 -3.27992 0 -0.239764 3.27992 -3.27992 0.080315 0.080315 3.92008 2.23937c1.11969,0.640157 1.11969,1.68071 0,2.32087l-4.00039 2.15906 0 0z"/>
    <path id="_252430360" class="fil5" d="M21.6815 19.3594l-3.36024 -3.36024 -9.99921 9.99921c0.399213,0.400394 0.959055,0.400394 1.67953,0.080315l11.6799 -6.71929z"/>
    <path id="_252431080" class="fil6" d="M21.6815 12.639l-11.6799 -6.63898c-0.720472,-0.400394 -1.28031,-0.320079 -1.67953,0.0791339l9.99921 9.92008 3.36024 -3.36024z"/>
    <path id="_252430888" class="fil7" d="M21.6012 19.2791l-11.5996 6.55984c-0.640157,0.400394 -1.2,0.320079 -1.60039,0l-0.080315 0.080315 0.080315 0.0791339c0.400394,0.320079 0.960236,0.400394 1.60039,0l11.5996 -6.71929z"/>
    <path id="_252431296" class="fil7" d="M8.32087 25.839c-0.239764,-0.240945 -0.318898,-0.640157 -0.318898,-1.11969l0 0.0791339c0,0.480709 0.159449,0.881102 0.399213,1.12087l0 -0.080315 -0.080315 0zm17.2807 -8.80039l-4.00039 2.24055 0.080315 0.080315 3.92008 -2.23937c0.559843,-0.32126 0.799606,-0.720472 0.799606,-1.12087 0,0.400394 -0.320079,0.720472 -0.799606,1.03937z"/>
    <path id="_252431752" class="fil8" d="M10.0016 6.07913l15.6 8.88071c0.479528,0.318898 0.799606,0.638976 0.799606,1.03937 0,-0.400394 -0.239764,-0.799606 -0.799606,-1.12087l-15.6 -8.87835c-1.12087,-0.641339 -1.99961,-0.16063 -1.99961,1.11969l0 0.080315c0,-1.2 0.87874,-1.75984 1.99961,-1.12087l0 0z"/>
   </g>
  </g>
 </g>
</svg>
