<?xml version="1.0" encoding="UTF-8"?>
<!DOCTYPE svg PUBLIC "-//W3C//DTD SVG 1.1//EN" "http://www.w3.org/Graphics/SVG/1.1/DTD/svg11.dtd">
<!-- Creator: CorelDRAW -->
<svg xmlns="http://www.w3.org/2000/svg" xml:space="preserve" width="200px" height="30px" style="shape-rendering:geometricPrecision; text-rendering:geometricPrecision; image-rendering:optimizeQuality; fill-rule:evenodd; clip-rule:evenodd"
viewBox="0 0 200 30.0002"
 xmlns:xlink="http://www.w3.org/1999/xlink">
 <defs>
  <style type="text/css">
   <![CDATA[
    .fil0 {fill:none}
    .fil1 {fill:#453f3f}
    .fil2 {fill:#2aac80}
   ]]>
  </style>
 </defs>
 <g id="Layer_x0020_1">
  <metadata id="CorelCorpID_0Corel-Layer"/>
  <g id="_95614000">
   <rect id="_342029256" class="fil0" x="-0.000590556" y="2.49982" width="200.001" height="25.0006"/>
   <g>
    <path id="_338244336" class="fil2" d="M146.061 7.44218l-10.3855 0 -2.18624 -2.49333c-0.433468,-0.493705 -1.19056,-0.540949 -1.6819,-0.102757l0 0c-0.491342,0.437011 -0.538587,1.20001 -0.105119,1.69371l1.19529 1.363c-0.579926,0.236222 -1.11379,0.548036 -1.60867,0.934259 -0.55276,0.43583 -1.01694,0.936622 -1.39489,1.513 -0.374412,0.571658 -0.628351,1.19056 -0.757093,1.8508l-1.51419 7.8662 21.2269 0 1.50119 -7.80597c0.124017,-0.660241 0.105119,-1.28269 -0.0496067,-1.86379 -0.154726,-0.581107 -0.428744,-1.09135 -0.817329,-1.5319 -0.253939,-0.290553 -0.549217,-0.538587 -0.885834,-0.745281l1.85316 -1.65001c0.434649,-0.387405 0.477169,-1.06182 0.0933078,-1.49883l0 -0.00118111c-0.383861,-0.437011 -1.05355,-0.47835 -1.4882,-0.0921267l-2.88073 2.56537 -0.114568 -0.00118111 0 0zm-18.6379 13.8745c-0.0259845,0.442917 0.0165356,0.865755 0.124017,1.26851 0.154726,0.581107 0.428744,1.09253 0.817329,1.5319 0.388586,0.445279 0.876385,0.791345 1.45985,1.04056 0.577564,0.252758 1.23544,0.379137 1.96301,0.383861l10.8615 0c0.716935,-0.00472445 1.40434,-0.131103 2.07167,-0.374412 0.668509,-0.24449 1.28033,-0.585831 1.83427,-1.02166 0.557485,-0.43583 1.02048,-0.941346 1.39962,-1.513 0.270475,-0.41457 0.479531,-0.853944 0.622446,-1.31576l-21.1537 0zm7.52959 -8.57133c1.17284,0 2.12482,0.814967 2.12482,1.82127 0,1.00631 -0.951976,1.82127 -2.12482,1.82127 -1.17402,0 -2.12482,-0.814967 -2.12482,-1.82127 0,-1.00631 0.950795,-1.82127 2.12482,-1.82127zm8.74968 0c1.17402,0 2.12482,0.814967 2.12482,1.82127 0,1.00631 -0.950795,1.82127 -2.12482,1.82127 -1.17402,0 -2.12482,-0.814967 -2.12482,-1.82127 0,-1.00631 0.950795,-1.82127 2.12482,-1.82127z"/>
    <path id="_338243712" class="fil1" d="M15.5611 25.5628l0 0.00472445 0.608273 0c0.772447,-0.00472445 1.51891,-0.150001 2.23703,-0.428744 0.721659,-0.278742 1.37954,-0.672053 1.97718,-1.17048 0.598824,-0.498429 1.10198,-1.07599 1.50474,-1.73387 0.40394,-0.657879 0.677958,-1.36537 0.817329,-2.12246l0.354333 -1.95828c0.133466,-0.757093 0.114568,-1.46458 -0.0507878,-2.12246 -0.168899,-0.657879 -0.458271,-1.23544 -0.876385,-1.73387 -0.418114,-0.498429 -0.936622,-0.891739 -1.55434,-1.17048 -0.617721,-0.279923 -1.31576,-0.424019 -2.0823,-0.428744l-9.44181 0c-0.199608,-0.00472445 -0.353152,-0.07441 -0.462996,-0.204332 -0.109843,-0.129922 -0.150001,-0.294097 -0.119292,-0.493705l0.238585 -1.31458c0.0401578,-0.199608 0.139371,-0.363782 0.294097,-0.493705 0.15945,-0.134647 0.338979,-0.199608 0.537406,-0.204332l12.7749 0c0.219687,-0.00472445 0.428744,-0.0543311 0.622446,-0.15945 0.199608,-0.103938 0.363782,-0.24449 0.498429,-0.418114 0.139371,-0.174805 0.229136,-0.368507 0.269293,-0.583469l0.543311 -3.00357c0.0543311,-0.334255 -0.0153545,-0.608273 -0.194883,-0.827959 -0.184253,-0.218506 -0.442917,-0.328349 -0.777171,-0.337798l-13.9596 0c-0.772447,0.00472445 -1.51537,0.14882 -2.23703,0.427562 -0.72284,0.279923 -1.38072,0.673234 -1.97836,1.17166 -0.597643,0.498429 -1.09607,1.07599 -1.50001,1.73387 -0.408665,0.656698 -0.682683,1.36418 -0.822054,2.12246l-0.388586 2.13191c-0.128741,0.761817 -0.114568,1.4693 0.0555122,2.12718 0.168899,0.657879 0.458271,1.23662 0.876385,1.73387 0.418114,0.498429 0.936622,0.887015 1.55434,1.17166 0.617721,0.278742 1.31103,0.422838 2.0823,0.427562l9.44181 0c0.199608,0.00590556 0.353152,0.0708667 0.462996,0.204332 0.109843,0.129922 0.150001,0.294097 0.120473,0.493705l-0.179529 0.986228c-0.0401578,0.199608 -0.139371,0.363782 -0.294097,0.493705 -0.15945,0.134647 -0.338979,0.199608 -0.538587,0.204332l-13.1281 0c-0.218506,0.00472445 -0.428744,0.0543311 -0.62717,0.15945 -0.194883,0.103938 -0.359058,0.243309 -0.498429,0.418114 -0.134647,0.174805 -0.224411,0.368507 -0.264569,0.583469l-0.572839 3.15357c-0.0496067,0.333073 0.0153545,0.602367 0.199608,0.822054 0.184253,0.218506 0.438192,0.333073 0.772447,0.338979l13.7056 0z"/>
    <path id="_338243472" class="fil1" d="M23.034 25.0844c0.0649611,0.153545 0.165356,0.268112 0.298821,0.353152 0.140552,0.08504 0.294097,0.129922 0.473626,0.129922l5.03744 0c0.188978,0 0.373231,-0.0496067 0.543311,-0.144096 0.173623,-0.09567 0.3189,-0.219687 0.438192,-0.383861l0.78662 -1.11143 0.408665 -0.62717 10.0997 0 0.532681 1.72797c0.0496067,0.17008 0.139371,0.298821 0.264569,0.394491 0.124017,0.0885834 0.268112,0.139371 0.438192,0.139371l4.77287 0c0.154726,0 0.30827,-0.0448822 0.453547,-0.125198 0.14882,-0.08504 0.274018,-0.204332 0.38268,-0.353152 0.100394,-0.150001 0.17008,-0.314176 0.199608,-0.483075 0.0307089,-0.17008 0.0200789,-0.334255 -0.0295278,-0.48898l-5.98351 -18.3545c-0.105119,-0.274018 -0.229136,-0.483075 -0.388586,-0.633076 -0.154726,-0.14882 -0.314176,-0.253939 -0.473626,-0.314176 -0.154726,-0.06378 -0.289372,-0.0992134 -0.398035,-0.108662 -0.109843,-0.01063 -0.165356,-0.0153545 -0.17008,-0.0153545 -0.274018,0 -0.532681,0 -0.777171,-0.00472445 -0.24449,0 -0.473626,-0.00472445 -0.692131,-0.00472445 -0.0649611,0 -0.125198,0 -0.179529,0 -0.0602367,0 -0.119292,0 -0.179529,0 -0.0248033,0 -0.0496067,0 -0.0791345,0 -0.0259845,0 -0.0507878,0 -0.0755911,0 -0.173623,0 -0.338979,-0.00590556 -0.498429,-0.00590556 -0.15945,0 -0.30827,0.00590556 -0.458271,0.01063l0 0.0141733c0,0 -0.00472445,0 -0.00472445,0 0,0 -0.00472445,0 -0.00472445,0.00590556l0 -0.0200789c-0.359058,0.00944889 -0.682683,0.0496067 -0.981504,0.114568 -0.298821,0.0590556 -0.568115,0.168899 -0.817329,0.323625 -0.24449,0.14882 -0.473626,0.363782 -0.677958,0.6378l-12.1111 18.3545c-0.109843,0.154726 -0.179529,0.3189 -0.204332,0.48898 -0.0295278,0.168899 -0.00944889,0.333073 0.0543311,0.483075l0 0zm14.8324 -12.2221l1.71852 5.45083 -5.2961 0 3.57759 -5.45083z"/>
    <path id="_338243808" class="fil1" d="M58.6528 13.8344l6.44178 11.3198c0.0897645,0.128741 0.209057,0.23386 0.348428,0.303546 0.144096,0.07441 0.303546,0.109843 0.483075,0.109843l4.32523 0c0.218506,0 0.428744,-0.0555122 0.62717,-0.15945 0.194883,-0.105119 0.359058,-0.239766 0.498429,-0.413389 0.134647,-0.174805 0.224411,-0.374412 0.264569,-0.588194l3.36262 -18.5836c0.0496067,-0.32953 -0.0200789,-0.603548 -0.204332,-0.822054 -0.179529,-0.219687 -0.438192,-0.334255 -0.772447,-0.343703l-3.92129 0c-0.218506,0.00472445 -0.427562,0.0543311 -0.622446,0.15945 -0.199608,0.103938 -0.363782,0.243309 -0.498429,0.418114 -0.139371,0.174805 -0.229136,0.368507 -0.268112,0.582288l-1.74923 9.67685c-0.0200789,0.0838589 -0.0602367,0.14882 -0.125198,0.188978 -0.06378,0.0401578 -0.139371,0.0496067 -0.213781,0.0342522 -0.0791345,-0.00944889 -0.144096,-0.0543311 -0.193702,-0.128741l-5.91973 -10.5178c-0.0897645,-0.129922 -0.209057,-0.235041 -0.348428,-0.304727 -0.144096,-0.0696856 -0.303546,-0.103938 -0.47835,-0.108662l-4.99728 0c-0.224411,0.00472445 -0.428744,0.0543311 -0.62717,0.15945 -0.194883,0.103938 -0.363782,0.243309 -0.498429,0.418114 -0.134647,0.174805 -0.224411,0.368507 -0.269293,0.582288l-3.3579 18.5848c-0.0496067,0.328349 0.0153545,0.602367 0.199608,0.822054 0.184253,0.218506 0.438192,0.333073 0.771266,0.338979l3.92129 0c0.219687,0 0.428744,-0.0555122 0.623627,-0.154726 0.198427,-0.105119 0.362601,-0.24449 0.503154,-0.418114 0.133466,-0.174805 0.22323,-0.369688 0.263388,-0.588194l1.89332 -10.4729c0.0200789,-0.0897645 0.0602367,-0.150001 0.129922,-0.190159 0.0649611,-0.0389767 0.134647,-0.0496067 0.213781,-0.0389767 0.07441,0.0141733 0.139371,0.0590556 0.194883,0.134647l0 0z"/>
    <path id="_338242440" class="fil1" d="M75.936 25.5675l17.6222 0c0.204332,-0.00472445 0.38268,-0.07441 0.54213,-0.204332 0.154726,-0.134647 0.25512,-0.298821 0.294097,-0.493705l0.738195 -4.09491c0.0295278,-0.194883 -0.01063,-0.359058 -0.120473,-0.493705 -0.108662,-0.128741 -0.263388,-0.198427 -0.462996,-0.204332l-12.2517 0c-0.06378,0 -0.114568,-0.0248033 -0.153545,-0.06378 -0.0354333,-0.0448822 -0.0507878,-0.100394 -0.0401578,-0.17008l0.363782 -2.01261c0.0141733,-0.0649611 0.0496067,-0.119292 0.0992134,-0.164175 0.0555122,-0.0448822 0.114568,-0.0649611 0.179529,-0.0696856l9.8552 0c0.198427,-0.00590556 0.377956,-0.0696856 0.537406,-0.204332 0.154726,-0.129922 0.253939,-0.294097 0.294097,-0.48898l0.657879 -3.62719c0.0295278,-0.199608 -0.00944889,-0.363782 -0.119292,-0.492524 -0.109843,-0.129922 -0.264569,-0.199608 -0.464177,-0.204332l-9.84929 0c-0.0696856,0 -0.119292,-0.0248033 -0.15945,-0.0696856 -0.0354333,-0.0401578 -0.0496067,-0.09567 -0.0401578,-0.165356l0.394491 -2.15671c0.00944889,-0.0649611 0.0437011,-0.119292 0.0944889,-0.164175 0.0543311,-0.0448822 0.114568,-0.0649611 0.179529,-0.0696856l12.2505 0c0.199608,-0.00590556 0.379137,-0.0696856 0.538587,-0.204332 0.15945,-0.129922 0.253939,-0.294097 0.298821,-0.493705l0.71221 -3.94609c0.0295278,-0.199608 -0.00944889,-0.363782 -0.119292,-0.492524 -0.109843,-0.134647 -0.264569,-0.199608 -0.462996,-0.204332l-17.6222 0c-0.224411,0 -0.433468,0.0543311 -0.628351,0.15945 -0.193702,0.103938 -0.363782,0.238585 -0.498429,0.418114 -0.139371,0.174805 -0.229136,0.368507 -0.269293,0.583469l-3.36735 18.6285c-0.0354333,0.218506 -0.0153545,0.413389 0.0602367,0.588194 0.0696856,0.173623 0.188978,0.312995 0.348428,0.418114 0.15945,0.103938 0.348428,0.154726 0.568115,0.15945l0 0z"/>
    <path id="_338241312" class="fil2" d="M101.954 4.66185c-0.224411,0 -0.428744,0.0543311 -0.628351,0.15945 -0.193702,0.0992134 -0.363782,0.238585 -0.498429,0.413389 -0.134647,0.174805 -0.224411,0.368507 -0.269293,0.588194l-3.3579 18.5836c-0.0496067,0.328349 0.0153545,0.602367 0.199608,0.822054 0.184253,0.219687 0.438192,0.328349 0.772447,0.338979l3.56696 0c0.219687,-0.00472445 0.428744,-0.0555122 0.622446,-0.15945 0.194883,-0.105119 0.363782,-0.239766 0.498429,-0.413389 0.139371,-0.174805 0.224411,-0.374412 0.269293,-0.588194l1.33584 -7.39848 2.44608 7.88156c0.0590556,0.209057 0.173623,0.374412 0.343703,0.493705 0.168899,0.119292 0.368507,0.179529 0.602367,0.184253l4.71854 0c0.238585,-0.00472445 0.458271,-0.0649611 0.672053,-0.184253 0.210238,-0.119292 0.388586,-0.284648 0.523232,-0.493705l5.30083 -7.91699 -1.34411 7.43392c-0.0507878,0.328349 0.0141733,0.602367 0.198427,0.822054 0.179529,0.219687 0.439374,0.328349 0.772447,0.338979l3.56223 0c0.224411,-0.00472445 0.428744,-0.0555122 0.628351,-0.15945 0.193702,-0.105119 0.363782,-0.239766 0.498429,-0.413389 0.133466,-0.174805 0.22323,-0.374412 0.268112,-0.588194l3.3579 -18.5836c0.0507878,-0.32953 -0.0141733,-0.603548 -0.193702,-0.822054 -0.184253,-0.219687 -0.444098,-0.32953 -0.777171,-0.338979l-4.57445 0c-0.23386,0 -0.458271,0.0649611 -0.667328,0.184253 -0.213781,0.119292 -0.388586,0.283467 -0.527957,0.487799l-8.68944 13.0347c-0.0496067,0.0696856 -0.108662,0.108662 -0.184253,0.124017 -0.07441,0.00944889 -0.144096,0 -0.209057,-0.0401578 -0.0696856,-0.0342522 -0.114568,-0.0944889 -0.144096,-0.173623l-3.57286 -12.945c-0.0590556,-0.204332 -0.173623,-0.368507 -0.343703,-0.487799 -0.168899,-0.119292 -0.368507,-0.184253 -0.602367,-0.184253l-4.57326 0z"/>
    <path id="_338244384" class="fil2" d="M150.919 24.4065c-0.0496067,0.328349 0.0141733,0.602367 0.198427,0.822054 0.184253,0.219687 0.439374,0.328349 0.772447,0.338979l3.95082 0c0.219687,0 0.428744,-0.0555122 0.623627,-0.15945 0.193702,-0.105119 0.363782,-0.239766 0.497248,-0.413389 0.140552,-0.174805 0.224411,-0.374412 0.269293,-0.588194l0.304727 -1.67364c0.0141733,-0.0803156 0.0437011,-0.165356 0.0838589,-0.239766 0.0448822,-0.07441 0.100394,-0.144096 0.164175,-0.209057l2.82522 -2.70475 3.78664 5.59965c0.0897645,0.129922 0.204332,0.23386 0.348428,0.303546 0.145277,0.07441 0.298821,0.109843 0.47835,0.109843l6.14887 0c0.139371,-0.00472445 0.258663,-0.0496067 0.353152,-0.129922 0.0992134,-0.0838589 0.164175,-0.184253 0.199608,-0.303546 0.0295278,-0.114568 0.0141733,-0.224411 -0.0496067,-0.328349l-6.45241 -9.54693c-0.0295278,-0.0448822 -0.0401578,-0.0944889 -0.0295278,-0.14882 0.00944889,-0.0555122 0.0389767,-0.105119 0.0838589,-0.150001l9.94968 -9.59063c0.105119,-0.105119 0.15945,-0.219687 0.17008,-0.334255 0.00944889,-0.119292 -0.0153545,-0.218506 -0.08504,-0.303546 -0.0696856,-0.0791345 -0.174805,-0.124017 -0.309451,-0.129922l-6.15241 0c-0.174805,0 -0.343703,0.0401578 -0.513784,0.109843 -0.168899,0.0696856 -0.323625,0.174805 -0.462996,0.303546l-8.44967 8.14613c-0.134647,0.0897645 -0.224411,0.114568 -0.269293,0.0803156 -0.0448822,-0.0354333 -0.0696856,-0.0897645 -0.0696856,-0.15945 0,-0.0696856 0.00472445,-0.109843 0.00472445,-0.114568l1.3004 -7.17998c0.0496067,-0.328349 -0.0141733,-0.602367 -0.198427,-0.822054 -0.184253,-0.213781 -0.439374,-0.328349 -0.772447,-0.338979l-3.94609 0c-0.224411,0.00590556 -0.433468,0.0555122 -0.628351,0.15945 -0.193702,0.105119 -0.363782,0.24449 -0.497248,0.419295 -0.134647,0.173623 -0.224411,0.368507 -0.269293,0.582288l-3.3579 18.5942z"/>
    <path id="_338252664" class="fil2" d="M198.191 4.59216l-3.8268 0c-0.219687,0 -0.428744,0.0543311 -0.622446,0.154726 -0.194883,0.103938 -0.363782,0.243309 -0.498429,0.418114 -0.139371,0.174805 -0.229136,0.368507 -0.269293,0.588194l-2.45671 13.6017c-0.0389767,0.198427 -0.139371,0.363782 -0.298821,0.492524 -0.15945,0.129922 -0.338979,0.199608 -0.537406,0.204332l-8.25125 0c-0.198427,-0.00472445 -0.353152,-0.07441 -0.462996,-0.204332 -0.109843,-0.128741 -0.150001,-0.294097 -0.119292,-0.492524l2.45553 -13.6017c0.0555122,-0.32953 -0.00944889,-0.603548 -0.193702,-0.822054 -0.179529,-0.219687 -0.438192,-0.334255 -0.772447,-0.338979l-3.75121 0c-0.219687,0 -0.428744,0.0543311 -0.623627,0.154726 -0.193702,0.103938 -0.363782,0.243309 -0.497248,0.418114 -0.140552,0.174805 -0.229136,0.368507 -0.269293,0.588194l-2.59136 14.3387c-0.134647,0.757093 -0.114568,1.45985 0.0496067,2.11773 0.17008,0.657879 0.459452,1.23544 0.872842,1.73387 0.418114,0.498429 0.931897,0.887015 1.54962,1.16576 0.617721,0.283467 1.30513,0.428744 2.07758,0.433468l10.2532 0.0248033c0.00472445,0 0.00472445,0 0.00944889,0 0.00472445,0 0.00472445,0 0.01063,0l0.597643 0c0.772447,0 1.51419,-0.144096 2.23703,-0.424019 0.721659,-0.278742 1.37954,-0.667328 1.97718,-1.16576 0.598824,-0.498429 1.10198,-1.07599 1.50474,-1.73387 0.408665,-0.662604 0.677958,-1.37009 0.822054,-2.12718l2.59608 -14.3694c0.0354333,-0.213781 0.0200789,-0.407484 -0.0543311,-0.582288 -0.0755911,-0.174805 -0.194883,-0.314176 -0.349609,-0.418114 -0.15945,-0.100394 -0.348428,-0.154726 -0.566934,-0.154726l0 0z"/>
   </g>
  </g>
 </g>
</svg>
